<svg xmlns="http://www.w3.org/2000/svg" xmlns:xlink="http://www.w3.org/1999/xlink" width="500" zoomAndPan="magnify" viewBox="0 0 375 374.999991" height="500" preserveAspectRatio="xMidYMid meet" version="1.0"><defs><filter x="0%" y="0%" width="100%" height="100%" id="44d2aa4609"><feColorMatrix values="0 0 0 0 1 0 0 0 0 1 0 0 0 0 1 0 0 0 1 0" color-interpolation-filters="sRGB"/></filter><g/><mask id="9ec2784a8b"><g filter="url(#44d2aa4609)"><rect x="-37.5" width="450" fill="#000000" y="-37.499999" height="449.999989" fill-opacity="0.65"/></g></mask><clipPath id="91a2121b93"><rect x="0" width="343" y="0" height="34"/></clipPath></defs><g fill="#d3050f" fill-opacity="1"><g transform="translate(14.080814, 187.460232)"><g><path d="M 18.640625 0.453125 C 15.484375 0.453125 12.632812 -0.238281 10.09375 -1.625 C 7.550781 -3.007812 5.5625 -4.921875 4.125 -7.359375 C 2.6875 -9.796875 1.96875 -12.546875 1.96875 -15.609375 C 1.96875 -18.671875 2.691406 -21.421875 4.140625 -23.859375 C 5.597656 -26.296875 7.597656 -28.203125 10.140625 -29.578125 C 12.679688 -30.960938 15.53125 -31.65625 18.6875 -31.65625 C 21.238281 -31.65625 23.570312 -31.207031 25.6875 -30.3125 C 27.800781 -29.425781 29.582031 -28.132812 31.03125 -26.4375 L 27.296875 -22.921875 C 25.035156 -25.359375 22.253906 -26.578125 18.953125 -26.578125 C 16.804688 -26.578125 14.882812 -26.109375 13.1875 -25.171875 C 11.5 -24.234375 10.175781 -22.929688 9.21875 -21.265625 C 8.269531 -19.609375 7.796875 -17.722656 7.796875 -15.609375 C 7.796875 -13.492188 8.269531 -11.601562 9.21875 -9.9375 C 10.175781 -8.28125 11.5 -6.984375 13.1875 -6.046875 C 14.882812 -5.109375 16.804688 -4.640625 18.953125 -4.640625 C 22.253906 -4.640625 25.035156 -5.875 27.296875 -8.34375 L 31.03125 -4.765625 C 29.582031 -3.078125 27.789062 -1.785156 25.65625 -0.890625 C 23.53125 0.00390625 21.191406 0.453125 18.640625 0.453125 Z M 18.640625 0.453125 "/></g></g></g><g fill="#d3050f" fill-opacity="1"><g transform="translate(46.489118, 187.460232)"><g><path d="M 32.859375 0 L 32.828125 -20.6875 L 22.5625 -3.5625 L 19.984375 -3.5625 L 9.71875 -20.421875 L 9.71875 0 L 4.1875 0 L 4.1875 -31.21875 L 8.96875 -31.21875 L 21.359375 -10.53125 L 33.53125 -31.21875 L 38.3125 -31.21875 L 38.34375 0 Z M 32.859375 0 "/></g></g></g><g fill="#3a3a3a" fill-opacity="1"><g transform="translate(89.069091, 187.460232)"><g/></g></g><g fill="#5e6665" fill-opacity="1"><g transform="translate(101.373777, 187.460232)"><g><path d="M 10.875 -27.34375 L 0.171875 -27.34375 L 0.171875 -31.21875 L 26 -31.21875 L 26 -27.34375 L 15.296875 -27.34375 L 15.296875 0 L 10.875 0 Z M 10.875 -27.34375 "/></g></g></g><g fill="#5e6665" fill-opacity="1"><g transform="translate(126.292691, 187.460232)"><g><path d="M 12.671875 -23.859375 C 15.929688 -23.859375 18.429688 -23.054688 20.171875 -21.453125 C 21.910156 -19.847656 22.78125 -17.453125 22.78125 -14.265625 L 22.78125 0 L 18.734375 0 L 18.734375 -3.125 C 18.015625 -2.019531 16.992188 -1.175781 15.671875 -0.59375 C 14.347656 -0.0195312 12.78125 0.265625 10.96875 0.265625 C 8.320312 0.265625 6.203125 -0.367188 4.609375 -1.640625 C 3.023438 -2.921875 2.234375 -4.601562 2.234375 -6.6875 C 2.234375 -8.769531 2.988281 -10.441406 4.5 -11.703125 C 6.019531 -12.960938 8.429688 -13.59375 11.734375 -13.59375 L 18.5 -13.59375 L 18.5 -14.453125 C 18.5 -16.296875 17.960938 -17.707031 16.890625 -18.6875 C 15.828125 -19.664062 14.253906 -20.15625 12.171875 -20.15625 C 10.773438 -20.15625 9.40625 -19.925781 8.0625 -19.46875 C 6.726562 -19.007812 5.601562 -18.390625 4.6875 -17.609375 L 2.90625 -20.828125 C 4.125 -21.804688 5.578125 -22.554688 7.265625 -23.078125 C 8.960938 -23.597656 10.765625 -23.859375 12.671875 -23.859375 Z M 11.6875 -3.03125 C 13.320312 -3.03125 14.734375 -3.394531 15.921875 -4.125 C 17.109375 -4.851562 17.96875 -5.882812 18.5 -7.21875 L 18.5 -10.53125 L 11.90625 -10.53125 C 8.28125 -10.53125 6.46875 -9.3125 6.46875 -6.875 C 6.46875 -5.675781 6.925781 -4.734375 7.84375 -4.046875 C 8.769531 -3.367188 10.050781 -3.03125 11.6875 -3.03125 Z M 11.6875 -3.03125 "/></g></g></g><g fill="#5e6665" fill-opacity="1"><g transform="translate(152.950419, 187.460232)"><g><path d="M 19.125 0 L 12.3125 -9.046875 L 5.390625 0 L 0.625 0 L 9.9375 -12.078125 L 1.0625 -23.640625 L 5.84375 -23.640625 L 12.359375 -15.125 L 18.8125 -23.640625 L 23.5 -23.640625 L 14.578125 -12.078125 L 23.984375 0 Z M 19.125 0 "/></g></g></g><g fill="#5e6665" fill-opacity="1"><g transform="translate(177.557549, 187.460232)"><g/></g></g><g fill="#5e6665" fill-opacity="1"><g transform="translate(189.549068, 187.460232)"><g><path d="M 27.34375 -3.875 L 27.34375 0 L 4.6875 0 L 4.6875 -31.21875 L 26.71875 -31.21875 L 26.71875 -27.34375 L 9.140625 -27.34375 L 9.140625 -17.75 L 24.796875 -17.75 L 24.796875 -13.953125 L 9.140625 -13.953125 L 9.140625 -3.875 Z M 27.34375 -3.875 "/></g></g></g><g fill="#5e6665" fill-opacity="1"><g transform="translate(218.881372, 187.460232)"><g><path d="M 19.125 0 L 12.3125 -9.046875 L 5.390625 0 L 0.625 0 L 9.9375 -12.078125 L 1.0625 -23.640625 L 5.84375 -23.640625 L 12.359375 -15.125 L 18.8125 -23.640625 L 23.5 -23.640625 L 14.578125 -12.078125 L 23.984375 0 Z M 19.125 0 "/></g></g></g><g fill="#5e6665" fill-opacity="1"><g transform="translate(243.488502, 187.460232)"><g><path d="M 16.59375 -23.859375 C 18.875 -23.859375 20.921875 -23.351562 22.734375 -22.34375 C 24.554688 -21.332031 25.976562 -19.921875 27 -18.109375 C 28.03125 -16.296875 28.546875 -14.195312 28.546875 -11.8125 C 28.546875 -9.4375 28.03125 -7.332031 27 -5.5 C 25.976562 -3.675781 24.554688 -2.257812 22.734375 -1.25 C 20.921875 -0.238281 18.875 0.265625 16.59375 0.265625 C 14.894531 0.265625 13.335938 -0.0546875 11.921875 -0.703125 C 10.515625 -1.359375 9.320312 -2.3125 8.34375 -3.5625 L 8.34375 8.65625 L 4.0625 8.65625 L 4.0625 -23.640625 L 8.15625 -23.640625 L 8.15625 -19.890625 C 9.113281 -21.191406 10.316406 -22.175781 11.765625 -22.84375 C 13.222656 -23.519531 14.832031 -23.859375 16.59375 -23.859375 Z M 16.234375 -3.484375 C 17.742188 -3.484375 19.101562 -3.832031 20.3125 -4.53125 C 21.519531 -5.226562 22.472656 -6.207031 23.171875 -7.46875 C 23.867188 -8.726562 24.21875 -10.175781 24.21875 -11.8125 C 24.21875 -13.445312 23.867188 -14.894531 23.171875 -16.15625 C 22.472656 -17.425781 21.519531 -18.398438 20.3125 -19.078125 C 19.101562 -19.765625 17.742188 -20.109375 16.234375 -20.109375 C 14.742188 -20.109375 13.394531 -19.757812 12.1875 -19.0625 C 10.988281 -18.363281 10.039062 -17.390625 9.34375 -16.140625 C 8.644531 -14.890625 8.296875 -13.445312 8.296875 -11.8125 C 8.296875 -10.175781 8.632812 -8.726562 9.3125 -7.46875 C 10 -6.207031 10.953125 -5.226562 12.171875 -4.53125 C 13.390625 -3.832031 14.742188 -3.484375 16.234375 -3.484375 Z M 16.234375 -3.484375 "/></g></g></g><g fill="#5e6665" fill-opacity="1"><g transform="translate(273.890783, 187.460232)"><g><path d="M 25.421875 -11.6875 C 25.421875 -11.351562 25.390625 -10.921875 25.328125 -10.390625 L 6.15625 -10.390625 C 6.425781 -8.304688 7.335938 -6.632812 8.890625 -5.375 C 10.453125 -4.113281 12.394531 -3.484375 14.71875 -3.484375 C 17.539062 -3.484375 19.8125 -4.429688 21.53125 -6.328125 L 23.90625 -3.5625 C 22.832031 -2.3125 21.5 -1.359375 19.90625 -0.703125 C 18.320312 -0.0546875 16.546875 0.265625 14.578125 0.265625 C 12.085938 0.265625 9.875 -0.242188 7.9375 -1.265625 C 6.007812 -2.296875 4.515625 -3.734375 3.453125 -5.578125 C 2.398438 -7.421875 1.875 -9.5 1.875 -11.8125 C 1.875 -14.101562 2.382812 -16.171875 3.40625 -18.015625 C 4.4375 -19.859375 5.847656 -21.289062 7.640625 -22.3125 C 9.441406 -23.34375 11.472656 -23.859375 13.734375 -23.859375 C 15.992188 -23.859375 18.007812 -23.34375 19.78125 -22.3125 C 21.550781 -21.289062 22.929688 -19.859375 23.921875 -18.015625 C 24.921875 -16.171875 25.421875 -14.0625 25.421875 -11.6875 Z M 13.734375 -20.25 C 11.679688 -20.25 9.960938 -19.625 8.578125 -18.375 C 7.203125 -17.125 6.394531 -15.488281 6.15625 -13.46875 L 21.3125 -13.46875 C 21.070312 -15.457031 20.257812 -17.082031 18.875 -18.34375 C 17.5 -19.613281 15.785156 -20.25 13.734375 -20.25 Z M 13.734375 -20.25 "/></g></g></g><g fill="#5e6665" fill-opacity="1"><g transform="translate(301.172592, 187.460232)"><g><path d="M 8.15625 -19.671875 C 8.90625 -21.035156 10.003906 -22.070312 11.453125 -22.78125 C 12.910156 -23.5 14.679688 -23.859375 16.765625 -23.859375 L 16.765625 -19.703125 C 16.523438 -19.734375 16.195312 -19.75 15.78125 -19.75 C 13.46875 -19.75 11.648438 -19.054688 10.328125 -17.671875 C 9.003906 -16.296875 8.34375 -14.328125 8.34375 -11.765625 L 8.34375 0 L 4.0625 0 L 4.0625 -23.640625 L 8.15625 -23.640625 Z M 8.15625 -19.671875 "/></g></g></g><g fill="#5e6665" fill-opacity="1"><g transform="translate(320.118467, 187.460232)"><g><path d="M 17.34375 -1.375 C 16.71875 -0.84375 15.941406 -0.4375 15.015625 -0.15625 C 14.097656 0.125 13.148438 0.265625 12.171875 0.265625 C 9.796875 0.265625 7.953125 -0.367188 6.640625 -1.640625 C 5.335938 -2.921875 4.6875 -4.753906 4.6875 -7.140625 L 4.6875 -20.109375 L 0.671875 -20.109375 L 0.671875 -23.640625 L 4.6875 -23.640625 L 4.6875 -28.8125 L 8.96875 -28.8125 L 8.96875 -23.640625 L 15.734375 -23.640625 L 15.734375 -20.109375 L 8.96875 -20.109375 L 8.96875 -7.3125 C 8.96875 -6.03125 9.285156 -5.046875 9.921875 -4.359375 C 10.554688 -3.679688 11.472656 -3.34375 12.671875 -3.34375 C 13.972656 -3.34375 15.085938 -3.710938 16.015625 -4.453125 Z M 17.34375 -1.375 "/></g></g></g><g fill="#5e6665" fill-opacity="1"><g transform="translate(338.573804, 187.460232)"><g><path d="M 10.84375 0.265625 C 8.90625 0.265625 7.046875 0.00390625 5.265625 -0.515625 C 3.484375 -1.035156 2.082031 -1.695312 1.0625 -2.5 L 2.859375 -5.890625 C 3.898438 -5.140625 5.160156 -4.539062 6.640625 -4.09375 C 8.128906 -3.65625 9.632812 -3.4375 11.15625 -3.4375 C 14.894531 -3.4375 16.765625 -4.503906 16.765625 -6.640625 C 16.765625 -7.359375 16.507812 -7.925781 16 -8.34375 C 15.5 -8.757812 14.867188 -9.0625 14.109375 -9.25 C 13.359375 -9.445312 12.28125 -9.664062 10.875 -9.90625 C 8.976562 -10.195312 7.425781 -10.535156 6.21875 -10.921875 C 5.019531 -11.304688 3.988281 -11.957031 3.125 -12.875 C 2.257812 -13.800781 1.828125 -15.097656 1.828125 -16.765625 C 1.828125 -18.910156 2.71875 -20.628906 4.5 -21.921875 C 6.28125 -23.210938 8.675781 -23.859375 11.6875 -23.859375 C 13.257812 -23.859375 14.832031 -23.664062 16.40625 -23.28125 C 17.988281 -22.894531 19.285156 -22.375 20.296875 -21.71875 L 18.46875 -18.328125 C 16.53125 -19.578125 14.253906 -20.203125 11.640625 -20.203125 C 9.828125 -20.203125 8.441406 -19.90625 7.484375 -19.3125 C 6.535156 -18.71875 6.0625 -17.929688 6.0625 -16.953125 C 6.0625 -16.171875 6.328125 -15.554688 6.859375 -15.109375 C 7.398438 -14.671875 8.0625 -14.347656 8.84375 -14.140625 C 9.632812 -13.929688 10.742188 -13.691406 12.171875 -13.421875 C 14.078125 -13.097656 15.613281 -12.75 16.78125 -12.375 C 17.957031 -12 18.960938 -11.363281 19.796875 -10.46875 C 20.628906 -9.582031 21.046875 -8.335938 21.046875 -6.734375 C 21.046875 -4.585938 20.128906 -2.882812 18.296875 -1.625 C 16.472656 -0.363281 13.988281 0.265625 10.84375 0.265625 Z M 10.84375 0.265625 "/></g></g></g><g mask="url(#9ec2784a8b)"><g transform="matrix(1, 0, 0, 1, 17, 197)"><g clip-path="url(#91a2121b93)"><g fill="#3a3a3a" fill-opacity="1"><g transform="translate(0.218671, 26.284741)"><g><path d="M 16.5625 -2.359375 L 16.5625 0 L 2.84375 0 L 2.84375 -18.921875 L 16.1875 -18.921875 L 16.1875 -16.5625 L 5.546875 -16.5625 L 5.546875 -10.765625 L 15.03125 -10.765625 L 15.03125 -8.453125 L 5.546875 -8.453125 L 5.546875 -2.359375 Z M 16.5625 -2.359375 "/></g></g></g><g fill="#3a3a3a" fill-opacity="1"><g transform="translate(19.873612, 26.284741)"><g><path d="M 11.59375 0 L 7.453125 -5.484375 L 3.265625 0 L 0.375 0 L 6.03125 -7.328125 L 0.65625 -14.328125 L 3.546875 -14.328125 L 7.484375 -9.15625 L 11.40625 -14.328125 L 14.25 -14.328125 L 8.84375 -7.328125 L 14.546875 0 Z M 11.59375 0 "/></g></g></g><g fill="#3a3a3a" fill-opacity="1"><g transform="translate(36.338397, 26.284741)"><g><path d="M 10.0625 -14.46875 C 11.445312 -14.46875 12.6875 -14.160156 13.78125 -13.546875 C 14.882812 -12.929688 15.742188 -12.070312 16.359375 -10.96875 C 16.984375 -9.875 17.296875 -8.601562 17.296875 -7.15625 C 17.296875 -5.71875 16.984375 -4.441406 16.359375 -3.328125 C 15.742188 -2.222656 14.882812 -1.363281 13.78125 -0.75 C 12.6875 -0.144531 11.445312 0.15625 10.0625 0.15625 C 9.03125 0.15625 8.085938 -0.0390625 7.234375 -0.4375 C 6.378906 -0.832031 5.65625 -1.40625 5.0625 -2.15625 L 5.0625 5.25 L 2.453125 5.25 L 2.453125 -14.328125 L 4.953125 -14.328125 L 4.953125 -12.0625 C 5.523438 -12.851562 6.25 -13.453125 7.125 -13.859375 C 8.007812 -14.265625 8.988281 -14.46875 10.0625 -14.46875 Z M 9.84375 -2.109375 C 10.757812 -2.109375 11.582031 -2.316406 12.3125 -2.734375 C 13.039062 -3.160156 13.613281 -3.753906 14.03125 -4.515625 C 14.457031 -5.285156 14.671875 -6.164062 14.671875 -7.15625 C 14.671875 -8.15625 14.457031 -9.035156 14.03125 -9.796875 C 13.613281 -10.566406 13.039062 -11.15625 12.3125 -11.5625 C 11.582031 -11.976562 10.757812 -12.1875 9.84375 -12.1875 C 8.9375 -12.1875 8.117188 -11.972656 7.390625 -11.546875 C 6.660156 -11.128906 6.082031 -10.539062 5.65625 -9.78125 C 5.238281 -9.03125 5.03125 -8.15625 5.03125 -7.15625 C 5.03125 -6.164062 5.234375 -5.285156 5.640625 -4.515625 C 6.054688 -3.753906 6.632812 -3.160156 7.375 -2.734375 C 8.113281 -2.316406 8.9375 -2.109375 9.84375 -2.109375 Z M 9.84375 -2.109375 "/></g></g></g><g fill="#3a3a3a" fill-opacity="1"><g transform="translate(56.317766, 26.284741)"><g><path d="M 15.40625 -7.078125 C 15.40625 -6.878906 15.390625 -6.617188 15.359375 -6.296875 L 3.734375 -6.296875 C 3.890625 -5.035156 4.441406 -4.019531 5.390625 -3.25 C 6.335938 -2.488281 7.515625 -2.109375 8.921875 -2.109375 C 10.628906 -2.109375 12.007812 -2.6875 13.0625 -3.84375 L 14.484375 -2.15625 C 13.835938 -1.40625 13.03125 -0.832031 12.0625 -0.4375 C 11.101562 -0.0390625 10.03125 0.15625 8.84375 0.15625 C 7.320312 0.15625 5.972656 -0.148438 4.796875 -0.765625 C 3.628906 -1.390625 2.726562 -2.257812 2.09375 -3.375 C 1.457031 -4.5 1.140625 -5.757812 1.140625 -7.15625 C 1.140625 -8.550781 1.445312 -9.804688 2.0625 -10.921875 C 2.6875 -12.035156 3.539062 -12.90625 4.625 -13.53125 C 5.71875 -14.15625 6.953125 -14.46875 8.328125 -14.46875 C 9.691406 -14.46875 10.910156 -14.15625 11.984375 -13.53125 C 13.054688 -12.90625 13.894531 -12.035156 14.5 -10.921875 C 15.101562 -9.804688 15.40625 -8.523438 15.40625 -7.078125 Z M 8.328125 -12.265625 C 7.078125 -12.265625 6.035156 -11.882812 5.203125 -11.125 C 4.367188 -10.375 3.878906 -9.382812 3.734375 -8.15625 L 12.921875 -8.15625 C 12.773438 -9.363281 12.28125 -10.347656 11.4375 -11.109375 C 10.601562 -11.878906 9.566406 -12.265625 8.328125 -12.265625 Z M 8.328125 -12.265625 "/></g></g></g><g fill="#3a3a3a" fill-opacity="1"><g transform="translate(74.404671, 26.284741)"><g><path d="M 4.953125 -11.921875 C 5.398438 -12.753906 6.0625 -13.382812 6.9375 -13.8125 C 7.820312 -14.25 8.894531 -14.46875 10.15625 -14.46875 L 10.15625 -11.953125 C 10.019531 -11.960938 9.820312 -11.96875 9.5625 -11.96875 C 8.15625 -11.96875 7.050781 -11.546875 6.25 -10.703125 C 5.457031 -9.867188 5.0625 -8.679688 5.0625 -7.140625 L 5.0625 0 L 2.453125 0 L 2.453125 -14.328125 L 4.953125 -14.328125 Z M 4.953125 -11.921875 "/></g></g></g><g fill="#3a3a3a" fill-opacity="1"><g transform="translate(87.030456, 26.284741)"><g><path d="M 10.515625 -0.84375 C 10.140625 -0.507812 9.671875 -0.257812 9.109375 -0.09375 C 8.546875 0.0703125 7.96875 0.15625 7.375 0.15625 C 5.9375 0.15625 4.820312 -0.226562 4.03125 -1 C 3.238281 -1.769531 2.84375 -2.878906 2.84375 -4.328125 L 2.84375 -12.1875 L 0.40625 -12.1875 L 0.40625 -14.328125 L 2.84375 -14.328125 L 2.84375 -17.46875 L 5.4375 -17.46875 L 5.4375 -14.328125 L 9.546875 -14.328125 L 9.546875 -12.1875 L 5.4375 -12.1875 L 5.4375 -4.4375 C 5.4375 -3.65625 5.628906 -3.054688 6.015625 -2.640625 C 6.398438 -2.234375 6.953125 -2.03125 7.671875 -2.03125 C 8.460938 -2.03125 9.140625 -2.253906 9.703125 -2.703125 Z M 10.515625 -0.84375 "/></g></g></g><g fill="#3a3a3a" fill-opacity="1"><g transform="translate(99.764376, 26.284741)"><g><path d="M 6.5625 0.15625 C 5.394531 0.15625 4.269531 0 3.1875 -0.3125 C 2.101562 -0.625 1.257812 -1.023438 0.65625 -1.515625 L 1.734375 -3.5625 C 2.359375 -3.113281 3.117188 -2.753906 4.015625 -2.484375 C 4.921875 -2.210938 5.832031 -2.078125 6.75 -2.078125 C 9.019531 -2.078125 10.15625 -2.726562 10.15625 -4.03125 C 10.15625 -4.457031 10.003906 -4.796875 9.703125 -5.046875 C 9.398438 -5.304688 9.015625 -5.492188 8.546875 -5.609375 C 8.085938 -5.722656 7.4375 -5.851562 6.59375 -6 C 5.4375 -6.175781 4.492188 -6.378906 3.765625 -6.609375 C 3.035156 -6.847656 2.410156 -7.25 1.890625 -7.8125 C 1.367188 -8.375 1.109375 -9.15625 1.109375 -10.15625 C 1.109375 -11.457031 1.648438 -12.5 2.734375 -13.28125 C 3.816406 -14.070312 5.265625 -14.46875 7.078125 -14.46875 C 8.035156 -14.46875 8.988281 -14.347656 9.9375 -14.109375 C 10.894531 -13.878906 11.679688 -13.566406 12.296875 -13.171875 L 11.1875 -11.109375 C 10.019531 -11.867188 8.644531 -12.25 7.0625 -12.25 C 5.957031 -12.25 5.113281 -12.066406 4.53125 -11.703125 C 3.957031 -11.335938 3.671875 -10.859375 3.671875 -10.265625 C 3.671875 -9.796875 3.832031 -9.425781 4.15625 -9.15625 C 4.488281 -8.894531 4.890625 -8.695312 5.359375 -8.5625 C 5.835938 -8.4375 6.507812 -8.296875 7.375 -8.140625 C 8.53125 -7.941406 9.460938 -7.726562 10.171875 -7.5 C 10.890625 -7.269531 11.5 -6.882812 12 -6.34375 C 12.507812 -5.8125 12.765625 -5.054688 12.765625 -4.078125 C 12.765625 -2.785156 12.207031 -1.753906 11.09375 -0.984375 C 9.988281 -0.222656 8.476562 0.15625 6.5625 0.15625 Z M 6.5625 0.15625 "/></g></g></g><g fill="#3a3a3a" fill-opacity="1"><g transform="translate(114.850366, 26.284741)"><g/></g></g><g fill="#3a3a3a" fill-opacity="1"><g transform="translate(123.664182, 26.284741)"><g><path d="M 2.453125 -14.328125 L 5.0625 -14.328125 L 5.0625 0 L 2.453125 0 Z M 3.75 -17.078125 C 3.25 -17.078125 2.832031 -17.238281 2.5 -17.5625 C 2.164062 -17.894531 2 -18.296875 2 -18.765625 C 2 -19.234375 2.164062 -19.632812 2.5 -19.96875 C 2.832031 -20.300781 3.25 -20.46875 3.75 -20.46875 C 4.25 -20.46875 4.664062 -20.304688 5 -19.984375 C 5.332031 -19.671875 5.5 -19.28125 5.5 -18.8125 C 5.5 -18.320312 5.332031 -17.910156 5 -17.578125 C 4.664062 -17.242188 4.25 -17.078125 3.75 -17.078125 Z M 3.75 -17.078125 "/></g></g></g><g fill="#3a3a3a" fill-opacity="1"><g transform="translate(132.748352, 26.284741)"><g><path d="M 10.109375 -14.46875 C 11.929688 -14.46875 13.378906 -13.9375 14.453125 -12.875 C 15.523438 -11.820312 16.0625 -10.28125 16.0625 -8.25 L 16.0625 0 L 13.46875 0 L 13.46875 -7.953125 C 13.46875 -9.335938 13.132812 -10.378906 12.46875 -11.078125 C 11.800781 -11.785156 10.84375 -12.140625 9.59375 -12.140625 C 8.1875 -12.140625 7.078125 -11.726562 6.265625 -10.90625 C 5.460938 -10.082031 5.0625 -8.90625 5.0625 -7.375 L 5.0625 0 L 2.453125 0 L 2.453125 -14.328125 L 4.953125 -14.328125 L 4.953125 -12.15625 C 5.472656 -12.894531 6.175781 -13.460938 7.0625 -13.859375 C 7.957031 -14.265625 8.972656 -14.46875 10.109375 -14.46875 Z M 10.109375 -14.46875 "/></g></g></g><g fill="#3a3a3a" fill-opacity="1"><g transform="translate(152.700679, 26.284741)"><g/></g></g><g fill="#3a3a3a" fill-opacity="1"><g transform="translate(161.514495, 26.284741)"><g><path d="M 11.296875 0.21875 C 9.398438 0.21875 7.691406 -0.195312 6.171875 -1.03125 C 4.648438 -1.875 3.457031 -3.03125 2.59375 -4.5 C 1.726562 -5.96875 1.296875 -7.617188 1.296875 -9.453125 C 1.296875 -11.296875 1.726562 -12.953125 2.59375 -14.421875 C 3.457031 -15.890625 4.65625 -17.039062 6.1875 -17.875 C 7.71875 -18.71875 9.429688 -19.140625 11.328125 -19.140625 C 12.804688 -19.140625 14.15625 -18.890625 15.375 -18.390625 C 16.601562 -17.898438 17.648438 -17.164062 18.515625 -16.1875 L 16.765625 -14.484375 C 15.335938 -15.984375 13.5625 -16.734375 11.4375 -16.734375 C 10.03125 -16.734375 8.757812 -16.414062 7.625 -15.78125 C 6.488281 -15.15625 5.597656 -14.285156 4.953125 -13.171875 C 4.316406 -12.066406 4 -10.828125 4 -9.453125 C 4 -8.085938 4.316406 -6.847656 4.953125 -5.734375 C 5.597656 -4.628906 6.488281 -3.757812 7.625 -3.125 C 8.757812 -2.5 10.03125 -2.1875 11.4375 -2.1875 C 13.539062 -2.1875 15.316406 -2.941406 16.765625 -4.453125 L 18.515625 -2.75 C 17.648438 -1.78125 16.597656 -1.039062 15.359375 -0.53125 C 14.128906 -0.03125 12.773438 0.21875 11.296875 0.21875 Z M 11.296875 0.21875 "/></g></g></g><g fill="#3a3a3a" fill-opacity="1"><g transform="translate(182.602304, 26.284741)"><g><path d="M 8.59375 0.15625 C 7.164062 0.15625 5.882812 -0.15625 4.75 -0.78125 C 3.613281 -1.414062 2.726562 -2.285156 2.09375 -3.390625 C 1.457031 -4.503906 1.140625 -5.757812 1.140625 -7.15625 C 1.140625 -8.5625 1.457031 -9.816406 2.09375 -10.921875 C 2.726562 -12.035156 3.613281 -12.90625 4.75 -13.53125 C 5.882812 -14.15625 7.164062 -14.46875 8.59375 -14.46875 C 10.019531 -14.46875 11.296875 -14.15625 12.421875 -13.53125 C 13.546875 -12.90625 14.425781 -12.035156 15.0625 -10.921875 C 15.707031 -9.816406 16.03125 -8.5625 16.03125 -7.15625 C 16.03125 -5.757812 15.707031 -4.503906 15.0625 -3.390625 C 14.425781 -2.285156 13.546875 -1.414062 12.421875 -0.78125 C 11.296875 -0.15625 10.019531 0.15625 8.59375 0.15625 Z M 8.59375 -2.109375 C 9.507812 -2.109375 10.332031 -2.316406 11.0625 -2.734375 C 11.789062 -3.160156 12.363281 -3.753906 12.78125 -4.515625 C 13.195312 -5.285156 13.40625 -6.164062 13.40625 -7.15625 C 13.40625 -8.15625 13.195312 -9.035156 12.78125 -9.796875 C 12.363281 -10.566406 11.789062 -11.15625 11.0625 -11.5625 C 10.332031 -11.976562 9.507812 -12.1875 8.59375 -12.1875 C 7.675781 -12.1875 6.851562 -11.976562 6.125 -11.5625 C 5.394531 -11.15625 4.816406 -10.566406 4.390625 -9.796875 C 3.960938 -9.035156 3.75 -8.15625 3.75 -7.15625 C 3.75 -6.164062 3.960938 -5.285156 4.390625 -4.515625 C 4.816406 -3.753906 5.394531 -3.160156 6.125 -2.734375 C 6.851562 -2.316406 7.675781 -2.109375 8.59375 -2.109375 Z M 8.59375 -2.109375 "/></g></g></g><g fill="#3a3a3a" fill-opacity="1"><g transform="translate(201.311012, 26.284741)"><g><path d="M 20.375 -14.46875 C 22.175781 -14.46875 23.601562 -13.941406 24.65625 -12.890625 C 25.71875 -11.847656 26.25 -10.300781 26.25 -8.25 L 26.25 0 L 23.65625 0 L 23.65625 -7.953125 C 23.65625 -9.335938 23.332031 -10.378906 22.6875 -11.078125 C 22.050781 -11.785156 21.140625 -12.140625 19.953125 -12.140625 C 18.628906 -12.140625 17.582031 -11.726562 16.8125 -10.90625 C 16.039062 -10.082031 15.65625 -8.90625 15.65625 -7.375 L 15.65625 0 L 13.0625 0 L 13.0625 -7.953125 C 13.0625 -9.335938 12.738281 -10.378906 12.09375 -11.078125 C 11.457031 -11.785156 10.546875 -12.140625 9.359375 -12.140625 C 8.035156 -12.140625 6.988281 -11.726562 6.21875 -10.90625 C 5.445312 -10.082031 5.0625 -8.90625 5.0625 -7.375 L 5.0625 0 L 2.453125 0 L 2.453125 -14.328125 L 4.953125 -14.328125 L 4.953125 -12.1875 C 5.472656 -12.925781 6.15625 -13.488281 7 -13.875 C 7.84375 -14.269531 8.804688 -14.46875 9.890625 -14.46875 C 11.003906 -14.46875 11.992188 -14.238281 12.859375 -13.78125 C 13.734375 -13.332031 14.398438 -12.675781 14.859375 -11.8125 C 15.398438 -12.644531 16.15625 -13.296875 17.125 -13.765625 C 18.09375 -14.234375 19.175781 -14.46875 20.375 -14.46875 Z M 20.375 -14.46875 "/></g></g></g><g fill="#3a3a3a" fill-opacity="1"><g transform="translate(231.428587, 26.284741)"><g><path d="M 10.0625 -14.46875 C 11.445312 -14.46875 12.6875 -14.160156 13.78125 -13.546875 C 14.882812 -12.929688 15.742188 -12.070312 16.359375 -10.96875 C 16.984375 -9.875 17.296875 -8.601562 17.296875 -7.15625 C 17.296875 -5.71875 16.984375 -4.441406 16.359375 -3.328125 C 15.742188 -2.222656 14.882812 -1.363281 13.78125 -0.75 C 12.6875 -0.144531 11.445312 0.15625 10.0625 0.15625 C 9.03125 0.15625 8.085938 -0.0390625 7.234375 -0.4375 C 6.378906 -0.832031 5.65625 -1.40625 5.0625 -2.15625 L 5.0625 5.25 L 2.453125 5.25 L 2.453125 -14.328125 L 4.953125 -14.328125 L 4.953125 -12.0625 C 5.523438 -12.851562 6.25 -13.453125 7.125 -13.859375 C 8.007812 -14.265625 8.988281 -14.46875 10.0625 -14.46875 Z M 9.84375 -2.109375 C 10.757812 -2.109375 11.582031 -2.316406 12.3125 -2.734375 C 13.039062 -3.160156 13.613281 -3.753906 14.03125 -4.515625 C 14.457031 -5.285156 14.671875 -6.164062 14.671875 -7.15625 C 14.671875 -8.15625 14.457031 -9.035156 14.03125 -9.796875 C 13.613281 -10.566406 13.039062 -11.15625 12.3125 -11.5625 C 11.582031 -11.976562 10.757812 -12.1875 9.84375 -12.1875 C 8.9375 -12.1875 8.117188 -11.972656 7.390625 -11.546875 C 6.660156 -11.128906 6.082031 -10.539062 5.65625 -9.78125 C 5.238281 -9.03125 5.03125 -8.15625 5.03125 -7.15625 C 5.03125 -6.164062 5.234375 -5.285156 5.640625 -4.515625 C 6.054688 -3.753906 6.632812 -3.160156 7.375 -2.734375 C 8.113281 -2.316406 8.9375 -2.109375 9.84375 -2.109375 Z M 9.84375 -2.109375 "/></g></g></g><g fill="#3a3a3a" fill-opacity="1"><g transform="translate(251.407956, 26.284741)"><g><path d="M 2.453125 -20.0625 L 5.0625 -20.0625 L 5.0625 0 L 2.453125 0 Z M 2.453125 -20.0625 "/></g></g></g><g fill="#3a3a3a" fill-opacity="1"><g transform="translate(260.492138, 26.284741)"><g><path d="M 2.453125 -14.328125 L 5.0625 -14.328125 L 5.0625 0 L 2.453125 0 Z M 3.75 -17.078125 C 3.25 -17.078125 2.832031 -17.238281 2.5 -17.5625 C 2.164062 -17.894531 2 -18.296875 2 -18.765625 C 2 -19.234375 2.164062 -19.632812 2.5 -19.96875 C 2.832031 -20.300781 3.25 -20.46875 3.75 -20.46875 C 4.25 -20.46875 4.664062 -20.304688 5 -19.984375 C 5.332031 -19.671875 5.5 -19.28125 5.5 -18.8125 C 5.5 -18.320312 5.332031 -17.910156 5 -17.578125 C 4.664062 -17.242188 4.25 -17.078125 3.75 -17.078125 Z M 3.75 -17.078125 "/></g></g></g><g fill="#3a3a3a" fill-opacity="1"><g transform="translate(269.576297, 26.284741)"><g><path d="M 7.671875 -14.46875 C 9.660156 -14.46875 11.179688 -13.976562 12.234375 -13 C 13.285156 -12.03125 13.8125 -10.582031 13.8125 -8.65625 L 13.8125 0 L 11.359375 0 L 11.359375 -1.890625 C 10.921875 -1.222656 10.300781 -0.710938 9.5 -0.359375 C 8.695312 -0.015625 7.75 0.15625 6.65625 0.15625 C 5.050781 0.15625 3.765625 -0.226562 2.796875 -1 C 1.828125 -1.769531 1.34375 -2.785156 1.34375 -4.046875 C 1.34375 -5.316406 1.800781 -6.332031 2.71875 -7.09375 C 3.644531 -7.863281 5.109375 -8.25 7.109375 -8.25 L 11.21875 -8.25 L 11.21875 -8.765625 C 11.21875 -9.878906 10.890625 -10.734375 10.234375 -11.328125 C 9.585938 -11.921875 8.632812 -12.21875 7.375 -12.21875 C 6.53125 -12.21875 5.703125 -12.078125 4.890625 -11.796875 C 4.078125 -11.515625 3.394531 -11.140625 2.84375 -10.671875 L 1.75 -12.625 C 2.488281 -13.21875 3.375 -13.671875 4.40625 -13.984375 C 5.4375 -14.304688 6.523438 -14.46875 7.671875 -14.46875 Z M 7.078125 -1.84375 C 8.066406 -1.84375 8.921875 -2.0625 9.640625 -2.5 C 10.367188 -2.9375 10.894531 -3.5625 11.21875 -4.375 L 11.21875 -6.375 L 7.21875 -6.375 C 5.019531 -6.375 3.921875 -5.632812 3.921875 -4.15625 C 3.921875 -3.4375 4.195312 -2.867188 4.75 -2.453125 C 5.3125 -2.046875 6.085938 -1.84375 7.078125 -1.84375 Z M 7.078125 -1.84375 "/></g></g></g><g fill="#3a3a3a" fill-opacity="1"><g transform="translate(287.284701, 26.284741)"><g><path d="M 10.109375 -14.46875 C 11.929688 -14.46875 13.378906 -13.9375 14.453125 -12.875 C 15.523438 -11.820312 16.0625 -10.28125 16.0625 -8.25 L 16.0625 0 L 13.46875 0 L 13.46875 -7.953125 C 13.46875 -9.335938 13.132812 -10.378906 12.46875 -11.078125 C 11.800781 -11.785156 10.84375 -12.140625 9.59375 -12.140625 C 8.1875 -12.140625 7.078125 -11.726562 6.265625 -10.90625 C 5.460938 -10.082031 5.0625 -8.90625 5.0625 -7.375 L 5.0625 0 L 2.453125 0 L 2.453125 -14.328125 L 4.953125 -14.328125 L 4.953125 -12.15625 C 5.472656 -12.894531 6.175781 -13.460938 7.0625 -13.859375 C 7.957031 -14.265625 8.972656 -14.46875 10.109375 -14.46875 Z M 10.109375 -14.46875 "/></g></g></g><g fill="#3a3a3a" fill-opacity="1"><g transform="translate(307.237038, 26.284741)"><g><path d="M 8.703125 0.15625 C 7.242188 0.15625 5.941406 -0.15625 4.796875 -0.78125 C 3.648438 -1.414062 2.753906 -2.285156 2.109375 -3.390625 C 1.460938 -4.503906 1.140625 -5.757812 1.140625 -7.15625 C 1.140625 -8.5625 1.460938 -9.816406 2.109375 -10.921875 C 2.753906 -12.035156 3.648438 -12.90625 4.796875 -13.53125 C 5.941406 -14.15625 7.242188 -14.46875 8.703125 -14.46875 C 10.003906 -14.46875 11.160156 -14.203125 12.171875 -13.671875 C 13.191406 -13.148438 13.984375 -12.394531 14.546875 -11.40625 L 12.5625 -10.140625 C 12.113281 -10.816406 11.554688 -11.328125 10.890625 -11.671875 C 10.222656 -12.015625 9.484375 -12.1875 8.671875 -12.1875 C 7.734375 -12.1875 6.890625 -11.976562 6.140625 -11.5625 C 5.398438 -11.15625 4.816406 -10.566406 4.390625 -9.796875 C 3.960938 -9.035156 3.75 -8.15625 3.75 -7.15625 C 3.75 -6.15625 3.960938 -5.269531 4.390625 -4.5 C 4.816406 -3.738281 5.398438 -3.148438 6.140625 -2.734375 C 6.890625 -2.316406 7.734375 -2.109375 8.671875 -2.109375 C 9.484375 -2.109375 10.222656 -2.28125 10.890625 -2.625 C 11.554688 -2.96875 12.113281 -3.476562 12.5625 -4.15625 L 14.546875 -2.921875 C 13.984375 -1.929688 13.191406 -1.171875 12.171875 -0.640625 C 11.160156 -0.109375 10.003906 0.15625 8.703125 0.15625 Z M 8.703125 0.15625 "/></g></g></g><g fill="#3a3a3a" fill-opacity="1"><g transform="translate(324.215492, 26.284741)"><g><path d="M 15.40625 -7.078125 C 15.40625 -6.878906 15.390625 -6.617188 15.359375 -6.296875 L 3.734375 -6.296875 C 3.890625 -5.035156 4.441406 -4.019531 5.390625 -3.25 C 6.335938 -2.488281 7.515625 -2.109375 8.921875 -2.109375 C 10.628906 -2.109375 12.007812 -2.6875 13.0625 -3.84375 L 14.484375 -2.15625 C 13.835938 -1.40625 13.03125 -0.832031 12.0625 -0.4375 C 11.101562 -0.0390625 10.03125 0.15625 8.84375 0.15625 C 7.320312 0.15625 5.972656 -0.148438 4.796875 -0.765625 C 3.628906 -1.390625 2.726562 -2.257812 2.09375 -3.375 C 1.457031 -4.5 1.140625 -5.757812 1.140625 -7.15625 C 1.140625 -8.550781 1.445312 -9.804688 2.0625 -10.921875 C 2.6875 -12.035156 3.539062 -12.90625 4.625 -13.53125 C 5.71875 -14.15625 6.953125 -14.46875 8.328125 -14.46875 C 9.691406 -14.46875 10.910156 -14.15625 11.984375 -13.53125 C 13.054688 -12.90625 13.894531 -12.035156 14.5 -10.921875 C 15.101562 -9.804688 15.40625 -8.523438 15.40625 -7.078125 Z M 8.328125 -12.265625 C 7.078125 -12.265625 6.035156 -11.882812 5.203125 -11.125 C 4.367188 -10.375 3.878906 -9.382812 3.734375 -8.15625 L 12.921875 -8.15625 C 12.773438 -9.363281 12.28125 -10.347656 11.4375 -11.109375 C 10.601562 -11.878906 9.566406 -12.265625 8.328125 -12.265625 Z M 8.328125 -12.265625 "/></g></g></g></g></g></g></svg>